<mxfile host="app.diagrams.net" modified="2023-03-25T15:00:09.643Z" agent="Mozilla/5.0 (Macintosh; Intel Mac OS X 10_15_7) AppleWebKit/537.36 (KHTML, like Gecko) Chrome/111.0.0.0 Safari/537.36 Edg/111.0.1661.51" etag="NB8Bz-eyr7bBjXq9Z4HW" version="21.1.1" type="github">
  <diagram id="prtHgNgQTEPvFCAcTncT" name="Page-1">
    <mxGraphModel dx="1195" dy="765" grid="1" gridSize="10" guides="1" tooltips="1" connect="1" arrows="1" fold="1" page="1" pageScale="1" pageWidth="827" pageHeight="1169" math="0" shadow="0">
      <root>
        <mxCell id="0" />
        <mxCell id="1" parent="0" />
        <mxCell id="JxVEqXrQNGE-EyiC8fH8-5" value="" style="edgeStyle=orthogonalEdgeStyle;rounded=0;orthogonalLoop=1;jettySize=auto;html=1;" edge="1" parent="1" source="JxVEqXrQNGE-EyiC8fH8-1" target="JxVEqXrQNGE-EyiC8fH8-4">
          <mxGeometry relative="1" as="geometry" />
        </mxCell>
        <mxCell id="JxVEqXrQNGE-EyiC8fH8-10" value="" style="edgeStyle=orthogonalEdgeStyle;rounded=0;orthogonalLoop=1;jettySize=auto;html=1;" edge="1" parent="1" source="JxVEqXrQNGE-EyiC8fH8-1" target="JxVEqXrQNGE-EyiC8fH8-9">
          <mxGeometry relative="1" as="geometry" />
        </mxCell>
        <mxCell id="JxVEqXrQNGE-EyiC8fH8-21" style="edgeStyle=orthogonalEdgeStyle;rounded=0;orthogonalLoop=1;jettySize=auto;html=1;entryX=0.5;entryY=0;entryDx=0;entryDy=0;entryPerimeter=0;" edge="1" parent="1" source="JxVEqXrQNGE-EyiC8fH8-1" target="JxVEqXrQNGE-EyiC8fH8-17">
          <mxGeometry relative="1" as="geometry" />
        </mxCell>
        <mxCell id="JxVEqXrQNGE-EyiC8fH8-22" style="edgeStyle=orthogonalEdgeStyle;rounded=0;orthogonalLoop=1;jettySize=auto;html=1;entryX=0.5;entryY=0;entryDx=0;entryDy=0;entryPerimeter=0;" edge="1" parent="1" source="JxVEqXrQNGE-EyiC8fH8-1" target="JxVEqXrQNGE-EyiC8fH8-20">
          <mxGeometry relative="1" as="geometry" />
        </mxCell>
        <mxCell id="JxVEqXrQNGE-EyiC8fH8-1" value="用户&lt;br&gt;" style="shape=umlActor;verticalLabelPosition=bottom;verticalAlign=top;html=1;outlineConnect=0;flipH=0;" vertex="1" parent="1">
          <mxGeometry x="380" y="120" width="30" height="60" as="geometry" />
        </mxCell>
        <mxCell id="JxVEqXrQNGE-EyiC8fH8-4" value="系统管理员" style="shape=umlActor;verticalLabelPosition=bottom;verticalAlign=top;html=1;outlineConnect=0;flipH=0;" vertex="1" parent="1">
          <mxGeometry x="220" y="260" width="30" height="60" as="geometry" />
        </mxCell>
        <mxCell id="JxVEqXrQNGE-EyiC8fH8-9" value="项目负责人" style="shape=umlActor;verticalLabelPosition=bottom;verticalAlign=top;html=1;outlineConnect=0;flipH=0;" vertex="1" parent="1">
          <mxGeometry x="300" y="260" width="30" height="60" as="geometry" />
        </mxCell>
        <mxCell id="JxVEqXrQNGE-EyiC8fH8-17" value="项目实施人员" style="shape=umlActor;verticalLabelPosition=bottom;verticalAlign=top;html=1;outlineConnect=0;flipH=0;" vertex="1" parent="1">
          <mxGeometry x="460" y="260" width="30" height="60" as="geometry" />
        </mxCell>
        <mxCell id="JxVEqXrQNGE-EyiC8fH8-20" value="普通用户" style="shape=umlActor;verticalLabelPosition=bottom;verticalAlign=top;html=1;outlineConnect=0;flipH=0;" vertex="1" parent="1">
          <mxGeometry x="540" y="260" width="30" height="60" as="geometry" />
        </mxCell>
      </root>
    </mxGraphModel>
  </diagram>
</mxfile>
